<mxfile host="65bd71144e">
    <diagram id="qkhAMAnz5lJoI61s5aWf" name="search_folder">
        <mxGraphModel dx="514" dy="544" grid="1" gridSize="10" guides="1" tooltips="1" connect="1" arrows="1" fold="1" page="1" pageScale="1" pageWidth="850" pageHeight="1100" math="0" shadow="0">
            <root>
                <mxCell id="0"/>
                <mxCell id="1" parent="0"/>
                <mxCell id="7" value="" style="edgeStyle=none;html=1;" parent="1" source="2" target="6" edge="1">
                    <mxGeometry relative="1" as="geometry"/>
                </mxCell>
                <mxCell id="2" value="Start" style="ellipse;whiteSpace=wrap;html=1;" parent="1" vertex="1">
                    <mxGeometry x="270" y="40" width="120" height="80" as="geometry"/>
                </mxCell>
                <mxCell id="9" value="" style="edgeStyle=none;html=1;" parent="1" source="6" target="8" edge="1">
                    <mxGeometry relative="1" as="geometry"/>
                </mxCell>
                <mxCell id="6" value="Cari folder path" style="whiteSpace=wrap;html=1;" parent="1" vertex="1">
                    <mxGeometry x="270" y="160" width="120" height="60" as="geometry"/>
                </mxCell>
                <mxCell id="11" value="" style="edgeStyle=none;html=1;" parent="1" source="8" target="10" edge="1">
                    <mxGeometry relative="1" as="geometry"/>
                </mxCell>
                <mxCell id="8" value="Tampilkan path folder" style="shape=parallelogram;perimeter=parallelogramPerimeter;whiteSpace=wrap;html=1;fixedSize=1;" parent="1" vertex="1">
                    <mxGeometry x="270" y="280" width="120" height="60" as="geometry"/>
                </mxCell>
                <mxCell id="13" value="" style="edgeStyle=none;html=1;" parent="1" source="10" target="12" edge="1">
                    <mxGeometry relative="1" as="geometry"/>
                </mxCell>
                <mxCell id="16" value="" style="edgeStyle=none;html=1;" parent="1" source="10" target="15" edge="1">
                    <mxGeometry relative="1" as="geometry"/>
                </mxCell>
                <mxCell id="10" value="Berhasil?" style="rhombus;whiteSpace=wrap;html=1;" parent="1" vertex="1">
                    <mxGeometry x="290" y="400" width="80" height="80" as="geometry"/>
                </mxCell>
                <mxCell id="30" style="edgeStyle=none;html=1;entryX=1;entryY=0.5;entryDx=0;entryDy=0;" parent="1" source="12" target="27" edge="1">
                    <mxGeometry relative="1" as="geometry">
                        <mxPoint x="490" y="700" as="targetPoint"/>
                        <Array as="points">
                            <mxPoint x="490" y="680"/>
                            <mxPoint x="440" y="680"/>
                        </Array>
                    </mxGeometry>
                </mxCell>
                <mxCell id="12" value="message: folder ditemukan!" style="shape=parallelogram;perimeter=parallelogramPerimeter;whiteSpace=wrap;html=1;fixedSize=1;" parent="1" vertex="1">
                    <mxGeometry x="430" y="410" width="120" height="60" as="geometry"/>
                </mxCell>
                <mxCell id="14" value="Yes" style="text;html=1;strokeColor=none;fillColor=none;align=center;verticalAlign=middle;whiteSpace=wrap;rounded=0;" parent="1" vertex="1">
                    <mxGeometry x="380" y="420" width="40" height="20" as="geometry"/>
                </mxCell>
                <mxCell id="29" value="" style="edgeStyle=none;html=1;" parent="1" source="15" target="27" edge="1">
                    <mxGeometry relative="1" as="geometry"/>
                </mxCell>
                <mxCell id="15" value="message: folder tidak ditemukan!" style="shape=parallelogram;perimeter=parallelogramPerimeter;whiteSpace=wrap;html=1;fixedSize=1;" parent="1" vertex="1">
                    <mxGeometry x="270" y="520" width="120" height="60" as="geometry"/>
                </mxCell>
                <mxCell id="18" value="No" style="text;html=1;strokeColor=none;fillColor=none;align=center;verticalAlign=middle;whiteSpace=wrap;rounded=0;" parent="1" vertex="1">
                    <mxGeometry x="290" y="480" width="40" height="20" as="geometry"/>
                </mxCell>
                <mxCell id="27" value="Stop" style="ellipse;whiteSpace=wrap;html=1;" parent="1" vertex="1">
                    <mxGeometry x="270" y="640" width="120" height="80" as="geometry"/>
                </mxCell>
            </root>
        </mxGraphModel>
    </diagram>
    <diagram id="QK2mB4B8_FmoyOqXutJ6" name="function">
        <mxGraphModel dx="4720" dy="1797" grid="1" gridSize="10" guides="1" tooltips="1" connect="1" arrows="1" fold="1" page="0" pageScale="1" pageWidth="850" pageHeight="1100" math="0" shadow="0">
            <root>
                <mxCell id="0"/>
                <mxCell id="1" parent="0"/>
                <mxCell id="qeLVNtdqXbuEFJVSCmdw-7" value="" style="edgeStyle=none;html=1;" parent="1" source="qeLVNtdqXbuEFJVSCmdw-1" target="qeLVNtdqXbuEFJVSCmdw-6" edge="1">
                    <mxGeometry relative="1" as="geometry"/>
                </mxCell>
                <mxCell id="qeLVNtdqXbuEFJVSCmdw-1" value="start" style="ellipse;whiteSpace=wrap;html=1;" parent="1" vertex="1">
                    <mxGeometry x="863" y="40" width="110" height="80" as="geometry"/>
                </mxCell>
                <mxCell id="qeLVNtdqXbuEFJVSCmdw-9" value="" style="edgeStyle=none;html=1;" parent="1" source="qeLVNtdqXbuEFJVSCmdw-6" target="qeLVNtdqXbuEFJVSCmdw-8" edge="1">
                    <mxGeometry relative="1" as="geometry"/>
                </mxCell>
                <mxCell id="qeLVNtdqXbuEFJVSCmdw-6" value="tentukan file path" style="shape=parallelogram;perimeter=parallelogramPerimeter;whiteSpace=wrap;html=1;fixedSize=1;" parent="1" vertex="1">
                    <mxGeometry x="863" y="160" width="120" height="60" as="geometry"/>
                </mxCell>
                <mxCell id="qeLVNtdqXbuEFJVSCmdw-13" value="" style="edgeStyle=none;html=1;" parent="1" source="qeLVNtdqXbuEFJVSCmdw-8" target="qeLVNtdqXbuEFJVSCmdw-12" edge="1">
                    <mxGeometry relative="1" as="geometry"/>
                </mxCell>
                <mxCell id="qeLVNtdqXbuEFJVSCmdw-8" value="cari file path" style="whiteSpace=wrap;html=1;" parent="1" vertex="1">
                    <mxGeometry x="863" y="260" width="120" height="60" as="geometry"/>
                </mxCell>
                <mxCell id="qeLVNtdqXbuEFJVSCmdw-16" value="" style="edgeStyle=none;html=1;" parent="1" source="qeLVNtdqXbuEFJVSCmdw-10" target="qeLVNtdqXbuEFJVSCmdw-15" edge="1">
                    <mxGeometry relative="1" as="geometry"/>
                </mxCell>
                <mxCell id="qeLVNtdqXbuEFJVSCmdw-10" value="messaga: file berhasil dibaca" style="shape=parallelogram;perimeter=parallelogramPerimeter;whiteSpace=wrap;html=1;fixedSize=1;" parent="1" vertex="1">
                    <mxGeometry x="863" y="460" width="120" height="60" as="geometry"/>
                </mxCell>
                <mxCell id="qeLVNtdqXbuEFJVSCmdw-14" value="" style="edgeStyle=none;html=1;" parent="1" source="qeLVNtdqXbuEFJVSCmdw-12" target="qeLVNtdqXbuEFJVSCmdw-10" edge="1">
                    <mxGeometry relative="1" as="geometry"/>
                </mxCell>
                <mxCell id="qeLVNtdqXbuEFJVSCmdw-12" value="baca file" style="whiteSpace=wrap;html=1;" parent="1" vertex="1">
                    <mxGeometry x="863" y="360" width="120" height="60" as="geometry"/>
                </mxCell>
                <mxCell id="qeLVNtdqXbuEFJVSCmdw-18" value="" style="edgeStyle=none;html=1;" parent="1" source="qeLVNtdqXbuEFJVSCmdw-15" target="qeLVNtdqXbuEFJVSCmdw-17" edge="1">
                    <mxGeometry relative="1" as="geometry"/>
                </mxCell>
                <mxCell id="qeLVNtdqXbuEFJVSCmdw-20" value="" style="edgeStyle=none;html=1;" parent="1" source="qeLVNtdqXbuEFJVSCmdw-15" target="qeLVNtdqXbuEFJVSCmdw-19" edge="1">
                    <mxGeometry relative="1" as="geometry"/>
                </mxCell>
                <mxCell id="qeLVNtdqXbuEFJVSCmdw-15" value="berhasil?" style="rhombus;whiteSpace=wrap;html=1;" parent="1" vertex="1">
                    <mxGeometry x="883" y="560" width="80" height="80" as="geometry"/>
                </mxCell>
                <mxCell id="qeLVNtdqXbuEFJVSCmdw-31" style="edgeStyle=none;html=1;exitX=0.5;exitY=1;exitDx=0;exitDy=0;entryX=0.947;entryY=0.633;entryDx=0;entryDy=0;entryPerimeter=0;" parent="1" source="qeLVNtdqXbuEFJVSCmdw-17" target="qeLVNtdqXbuEFJVSCmdw-27" edge="1">
                    <mxGeometry relative="1" as="geometry">
                        <Array as="points">
                            <mxPoint x="1088" y="958"/>
                        </Array>
                    </mxGeometry>
                </mxCell>
                <mxCell id="qeLVNtdqXbuEFJVSCmdw-17" value="hitung &amp;amp; tampilkan daftar sheet" style="whiteSpace=wrap;html=1;" parent="1" vertex="1">
                    <mxGeometry x="1023" y="570" width="120" height="60" as="geometry"/>
                </mxCell>
                <mxCell id="qeLVNtdqXbuEFJVSCmdw-22" value="" style="edgeStyle=none;html=1;" parent="1" source="qeLVNtdqXbuEFJVSCmdw-19" target="qeLVNtdqXbuEFJVSCmdw-21" edge="1">
                    <mxGeometry relative="1" as="geometry"/>
                </mxCell>
                <mxCell id="qeLVNtdqXbuEFJVSCmdw-24" value="" style="edgeStyle=none;html=1;" parent="1" source="qeLVNtdqXbuEFJVSCmdw-19" target="qeLVNtdqXbuEFJVSCmdw-23" edge="1">
                    <mxGeometry relative="1" as="geometry"/>
                </mxCell>
                <mxCell id="qeLVNtdqXbuEFJVSCmdw-19" value="filenotfounderror" style="rhombus;whiteSpace=wrap;html=1;" parent="1" vertex="1">
                    <mxGeometry x="883" y="680" width="80" height="80" as="geometry"/>
                </mxCell>
                <mxCell id="qeLVNtdqXbuEFJVSCmdw-21" value="message: error: file tidak ditemukan!" style="shape=parallelogram;perimeter=parallelogramPerimeter;whiteSpace=wrap;html=1;fixedSize=1;" parent="1" vertex="1">
                    <mxGeometry x="703" y="690" width="120" height="60" as="geometry"/>
                </mxCell>
                <mxCell id="qeLVNtdqXbuEFJVSCmdw-26" value="" style="edgeStyle=none;html=1;" parent="1" source="qeLVNtdqXbuEFJVSCmdw-23" target="qeLVNtdqXbuEFJVSCmdw-25" edge="1">
                    <mxGeometry relative="1" as="geometry"/>
                </mxCell>
                <mxCell id="qeLVNtdqXbuEFJVSCmdw-28" value="" style="edgeStyle=none;html=1;" parent="1" source="qeLVNtdqXbuEFJVSCmdw-23" target="qeLVNtdqXbuEFJVSCmdw-27" edge="1">
                    <mxGeometry relative="1" as="geometry"/>
                </mxCell>
                <mxCell id="qeLVNtdqXbuEFJVSCmdw-23" value="exception" style="rhombus;whiteSpace=wrap;html=1;" parent="1" vertex="1">
                    <mxGeometry x="883" y="800" width="80" height="80" as="geometry"/>
                </mxCell>
                <mxCell id="qeLVNtdqXbuEFJVSCmdw-25" value="message: terjadi kesalahan: error" style="shape=parallelogram;perimeter=parallelogramPerimeter;whiteSpace=wrap;html=1;fixedSize=1;" parent="1" vertex="1">
                    <mxGeometry x="703" y="810" width="120" height="60" as="geometry"/>
                </mxCell>
                <mxCell id="qeLVNtdqXbuEFJVSCmdw-30" value="" style="edgeStyle=none;html=1;" parent="1" source="qeLVNtdqXbuEFJVSCmdw-27" target="qeLVNtdqXbuEFJVSCmdw-29" edge="1">
                    <mxGeometry relative="1" as="geometry"/>
                </mxCell>
                <mxCell id="qeLVNtdqXbuEFJVSCmdw-50" value="" style="edgeStyle=none;html=1;" parent="1" source="qeLVNtdqXbuEFJVSCmdw-27" target="qeLVNtdqXbuEFJVSCmdw-49" edge="1">
                    <mxGeometry relative="1" as="geometry"/>
                </mxCell>
                <mxCell id="qeLVNtdqXbuEFJVSCmdw-27" value="daftar sheet" style="shape=parallelogram;perimeter=parallelogramPerimeter;whiteSpace=wrap;html=1;fixedSize=1;" parent="1" vertex="1">
                    <mxGeometry x="863" y="920" width="120" height="60" as="geometry"/>
                </mxCell>
                <mxCell id="qeLVNtdqXbuEFJVSCmdw-29" value="stop" style="ellipse;whiteSpace=wrap;html=1;" parent="1" vertex="1">
                    <mxGeometry x="863" y="1020" width="120" height="80" as="geometry"/>
                </mxCell>
                <mxCell id="qeLVNtdqXbuEFJVSCmdw-46" value="Yes" style="text;html=1;strokeColor=none;fillColor=none;align=center;verticalAlign=middle;whiteSpace=wrap;rounded=0;" parent="1" vertex="1">
                    <mxGeometry x="968" y="580" width="40" height="20" as="geometry"/>
                </mxCell>
                <mxCell id="qeLVNtdqXbuEFJVSCmdw-47" value="No" style="text;html=1;strokeColor=none;fillColor=none;align=center;verticalAlign=middle;whiteSpace=wrap;rounded=0;" parent="1" vertex="1">
                    <mxGeometry x="887" y="640" width="40" height="20" as="geometry"/>
                </mxCell>
                <mxCell id="qeLVNtdqXbuEFJVSCmdw-48" value="No" style="text;html=1;strokeColor=none;fillColor=none;align=center;verticalAlign=middle;whiteSpace=wrap;rounded=0;" parent="1" vertex="1">
                    <mxGeometry x="888" y="760" width="40" height="20" as="geometry"/>
                </mxCell>
                <mxCell id="qeLVNtdqXbuEFJVSCmdw-52" value="" style="edgeStyle=none;html=1;" parent="1" source="qeLVNtdqXbuEFJVSCmdw-49" target="qeLVNtdqXbuEFJVSCmdw-51" edge="1">
                    <mxGeometry relative="1" as="geometry"/>
                </mxCell>
                <mxCell id="qeLVNtdqXbuEFJVSCmdw-49" value="Input sheet" style="shape=parallelogram;perimeter=parallelogramPerimeter;whiteSpace=wrap;html=1;fixedSize=1;" parent="1" vertex="1">
                    <mxGeometry x="663" y="920" width="120" height="60" as="geometry"/>
                </mxCell>
                <mxCell id="qeLVNtdqXbuEFJVSCmdw-54" value="" style="edgeStyle=none;html=1;" parent="1" source="qeLVNtdqXbuEFJVSCmdw-51" target="qeLVNtdqXbuEFJVSCmdw-53" edge="1">
                    <mxGeometry relative="1" as="geometry"/>
                </mxCell>
                <mxCell id="qeLVNtdqXbuEFJVSCmdw-51" value="cari sheet" style="whiteSpace=wrap;html=1;" parent="1" vertex="1">
                    <mxGeometry x="663" y="1040" width="120" height="60" as="geometry"/>
                </mxCell>
                <mxCell id="SMtu3aT2lYDiVOg0k4Gm-7" style="edgeStyle=none;html=1;exitX=0;exitY=0.5;exitDx=0;exitDy=0;entryX=1;entryY=0.5;entryDx=0;entryDy=0;" parent="1" source="qeLVNtdqXbuEFJVSCmdw-53" target="SMtu3aT2lYDiVOg0k4Gm-1" edge="1">
                    <mxGeometry relative="1" as="geometry">
                        <Array as="points">
                            <mxPoint x="340" y="1190"/>
                            <mxPoint x="340" y="190"/>
                        </Array>
                    </mxGeometry>
                </mxCell>
                <mxCell id="qeLVNtdqXbuEFJVSCmdw-53" value="tampilkan sheet" style="shape=parallelogram;perimeter=parallelogramPerimeter;whiteSpace=wrap;html=1;fixedSize=1;" parent="1" vertex="1">
                    <mxGeometry x="663" y="1160" width="120" height="60" as="geometry"/>
                </mxCell>
                <mxCell id="SMtu3aT2lYDiVOg0k4Gm-2" value="" style="edgeStyle=none;html=1;" parent="1" source="qeLVNtdqXbuEFJVSCmdw-55" target="SMtu3aT2lYDiVOg0k4Gm-1" edge="1">
                    <mxGeometry relative="1" as="geometry"/>
                </mxCell>
                <mxCell id="qeLVNtdqXbuEFJVSCmdw-55" value="start" style="ellipse;whiteSpace=wrap;html=1;" parent="1" vertex="1">
                    <mxGeometry x="-120" y="40" width="120" height="80" as="geometry"/>
                </mxCell>
                <mxCell id="SMtu3aT2lYDiVOg0k4Gm-4" value="" style="edgeStyle=none;html=1;" parent="1" source="SMtu3aT2lYDiVOg0k4Gm-1" target="SMtu3aT2lYDiVOg0k4Gm-3" edge="1">
                    <mxGeometry relative="1" as="geometry"/>
                </mxCell>
                <mxCell id="SMtu3aT2lYDiVOg0k4Gm-1" value="tentukan sheet" style="shape=parallelogram;perimeter=parallelogramPerimeter;whiteSpace=wrap;html=1;fixedSize=1;" parent="1" vertex="1">
                    <mxGeometry x="-120" y="160" width="120" height="60" as="geometry"/>
                </mxCell>
                <mxCell id="SMtu3aT2lYDiVOg0k4Gm-6" value="" style="edgeStyle=none;html=1;" parent="1" source="SMtu3aT2lYDiVOg0k4Gm-3" target="SMtu3aT2lYDiVOg0k4Gm-5" edge="1">
                    <mxGeometry relative="1" as="geometry"/>
                </mxCell>
                <mxCell id="SMtu3aT2lYDiVOg0k4Gm-3" value="cari sheet" style="whiteSpace=wrap;html=1;" parent="1" vertex="1">
                    <mxGeometry x="-120" y="280" width="120" height="60" as="geometry"/>
                </mxCell>
                <mxCell id="SMtu3aT2lYDiVOg0k4Gm-11" value="" style="edgeStyle=none;html=1;" parent="1" source="SMtu3aT2lYDiVOg0k4Gm-5" target="SMtu3aT2lYDiVOg0k4Gm-10" edge="1">
                    <mxGeometry relative="1" as="geometry"/>
                </mxCell>
                <mxCell id="SMtu3aT2lYDiVOg0k4Gm-5" value="message: sheet berhasil dibaca" style="shape=parallelogram;perimeter=parallelogramPerimeter;whiteSpace=wrap;html=1;fixedSize=1;strokeColor=#F0F0F0;" parent="1" vertex="1">
                    <mxGeometry x="-120" y="400" width="120" height="60" as="geometry"/>
                </mxCell>
                <mxCell id="SMtu3aT2lYDiVOg0k4Gm-13" value="" style="edgeStyle=none;html=1;" parent="1" source="SMtu3aT2lYDiVOg0k4Gm-10" target="SMtu3aT2lYDiVOg0k4Gm-12" edge="1">
                    <mxGeometry relative="1" as="geometry"/>
                </mxCell>
                <mxCell id="aGBRnnBapgmO91m6ep9d-9" value="Yes" style="edgeLabel;html=1;align=center;verticalAlign=middle;resizable=0;points=[];" parent="SMtu3aT2lYDiVOg0k4Gm-13" vertex="1" connectable="0">
                    <mxGeometry x="-0.4473" y="1" relative="1" as="geometry">
                        <mxPoint as="offset"/>
                    </mxGeometry>
                </mxCell>
                <mxCell id="SMtu3aT2lYDiVOg0k4Gm-15" value="" style="edgeStyle=none;html=1;" parent="1" source="SMtu3aT2lYDiVOg0k4Gm-10" target="SMtu3aT2lYDiVOg0k4Gm-14" edge="1">
                    <mxGeometry relative="1" as="geometry"/>
                </mxCell>
                <mxCell id="aGBRnnBapgmO91m6ep9d-13" value="No" style="edgeLabel;html=1;align=center;verticalAlign=middle;resizable=0;points=[];" parent="SMtu3aT2lYDiVOg0k4Gm-15" vertex="1" connectable="0">
                    <mxGeometry x="-0.5679" y="-1" relative="1" as="geometry">
                        <mxPoint as="offset"/>
                    </mxGeometry>
                </mxCell>
                <mxCell id="SMtu3aT2lYDiVOg0k4Gm-10" value="berhasil?" style="rhombus;whiteSpace=wrap;html=1;" parent="1" vertex="1">
                    <mxGeometry x="-100" y="520" width="80" height="80" as="geometry"/>
                </mxCell>
                <mxCell id="SMtu3aT2lYDiVOg0k4Gm-30" style="edgeStyle=none;html=1;exitX=0.5;exitY=1;exitDx=0;exitDy=0;entryX=1;entryY=0.25;entryDx=0;entryDy=0;" parent="1" target="SMtu3aT2lYDiVOg0k4Gm-26" edge="1">
                    <mxGeometry relative="1" as="geometry">
                        <mxPoint x="-10" y="1106" as="targetPoint"/>
                        <mxPoint x="100" y="586" as="sourcePoint"/>
                        <Array as="points">
                            <mxPoint x="100" y="1096"/>
                        </Array>
                    </mxGeometry>
                </mxCell>
                <mxCell id="SMtu3aT2lYDiVOg0k4Gm-12" value="hitung &amp;amp; tampilkan daftar kolom" style="whiteSpace=wrap;html=1;" parent="1" vertex="1">
                    <mxGeometry x="40" y="530" width="120" height="60" as="geometry"/>
                </mxCell>
                <mxCell id="SMtu3aT2lYDiVOg0k4Gm-17" value="" style="edgeStyle=none;html=1;" parent="1" source="SMtu3aT2lYDiVOg0k4Gm-14" target="SMtu3aT2lYDiVOg0k4Gm-16" edge="1">
                    <mxGeometry relative="1" as="geometry"/>
                </mxCell>
                <mxCell id="aGBRnnBapgmO91m6ep9d-12" value="Yes" style="edgeLabel;html=1;align=center;verticalAlign=middle;resizable=0;points=[];" parent="SMtu3aT2lYDiVOg0k4Gm-17" vertex="1" connectable="0">
                    <mxGeometry x="-0.4004" y="1" relative="1" as="geometry">
                        <mxPoint as="offset"/>
                    </mxGeometry>
                </mxCell>
                <mxCell id="SMtu3aT2lYDiVOg0k4Gm-19" value="" style="edgeStyle=none;html=1;" parent="1" source="SMtu3aT2lYDiVOg0k4Gm-14" target="SMtu3aT2lYDiVOg0k4Gm-18" edge="1">
                    <mxGeometry relative="1" as="geometry"/>
                </mxCell>
                <mxCell id="aGBRnnBapgmO91m6ep9d-14" value="No" style="edgeLabel;html=1;align=center;verticalAlign=middle;resizable=0;points=[];" parent="SMtu3aT2lYDiVOg0k4Gm-19" vertex="1" connectable="0">
                    <mxGeometry x="-0.4609" relative="1" as="geometry">
                        <mxPoint as="offset"/>
                    </mxGeometry>
                </mxCell>
                <mxCell id="SMtu3aT2lYDiVOg0k4Gm-14" value="FileNotFoundError" style="rhombus;whiteSpace=wrap;html=1;" parent="1" vertex="1">
                    <mxGeometry x="-100" y="660" width="80" height="80" as="geometry"/>
                </mxCell>
                <mxCell id="SMtu3aT2lYDiVOg0k4Gm-16" value="message: file tidak ditemukan!" style="shape=parallelogram;perimeter=parallelogramPerimeter;whiteSpace=wrap;html=1;fixedSize=1;" parent="1" vertex="1">
                    <mxGeometry x="-280" y="670" width="120" height="60" as="geometry"/>
                </mxCell>
                <mxCell id="SMtu3aT2lYDiVOg0k4Gm-21" value="" style="edgeStyle=none;html=1;" parent="1" source="SMtu3aT2lYDiVOg0k4Gm-18" target="SMtu3aT2lYDiVOg0k4Gm-20" edge="1">
                    <mxGeometry relative="1" as="geometry"/>
                </mxCell>
                <mxCell id="aGBRnnBapgmO91m6ep9d-15" value="Yes" style="edgeLabel;html=1;align=center;verticalAlign=middle;resizable=0;points=[];" parent="SMtu3aT2lYDiVOg0k4Gm-21" vertex="1" connectable="0">
                    <mxGeometry x="-0.5908" y="1" relative="1" as="geometry">
                        <mxPoint as="offset"/>
                    </mxGeometry>
                </mxCell>
                <mxCell id="SMtu3aT2lYDiVOg0k4Gm-23" value="" style="edgeStyle=none;html=1;" parent="1" source="SMtu3aT2lYDiVOg0k4Gm-18" target="SMtu3aT2lYDiVOg0k4Gm-22" edge="1">
                    <mxGeometry relative="1" as="geometry"/>
                </mxCell>
                <mxCell id="aGBRnnBapgmO91m6ep9d-16" value="No" style="edgeLabel;html=1;align=center;verticalAlign=middle;resizable=0;points=[];" parent="SMtu3aT2lYDiVOg0k4Gm-23" vertex="1" connectable="0">
                    <mxGeometry x="-0.642" relative="1" as="geometry">
                        <mxPoint as="offset"/>
                    </mxGeometry>
                </mxCell>
                <mxCell id="SMtu3aT2lYDiVOg0k4Gm-18" value="KeyError" style="rhombus;whiteSpace=wrap;html=1;" parent="1" vertex="1">
                    <mxGeometry x="-100" y="800" width="80" height="80" as="geometry"/>
                </mxCell>
                <mxCell id="SMtu3aT2lYDiVOg0k4Gm-20" value="message: sheet tidak ditemukan!" style="shape=parallelogram;perimeter=parallelogramPerimeter;whiteSpace=wrap;html=1;fixedSize=1;" parent="1" vertex="1">
                    <mxGeometry x="-280" y="810" width="120" height="60" as="geometry"/>
                </mxCell>
                <mxCell id="SMtu3aT2lYDiVOg0k4Gm-25" value="" style="edgeStyle=none;html=1;" parent="1" source="SMtu3aT2lYDiVOg0k4Gm-22" target="SMtu3aT2lYDiVOg0k4Gm-24" edge="1">
                    <mxGeometry relative="1" as="geometry"/>
                </mxCell>
                <mxCell id="aGBRnnBapgmO91m6ep9d-17" value="Yes" style="edgeLabel;html=1;align=center;verticalAlign=middle;resizable=0;points=[];" parent="SMtu3aT2lYDiVOg0k4Gm-25" vertex="1" connectable="0">
                    <mxGeometry x="-0.4427" y="1" relative="1" as="geometry">
                        <mxPoint as="offset"/>
                    </mxGeometry>
                </mxCell>
                <mxCell id="SMtu3aT2lYDiVOg0k4Gm-27" value="" style="edgeStyle=none;html=1;" parent="1" source="SMtu3aT2lYDiVOg0k4Gm-22" target="SMtu3aT2lYDiVOg0k4Gm-26" edge="1">
                    <mxGeometry relative="1" as="geometry"/>
                </mxCell>
                <mxCell id="SMtu3aT2lYDiVOg0k4Gm-22" value="Exception" style="rhombus;whiteSpace=wrap;html=1;" parent="1" vertex="1">
                    <mxGeometry x="-100" y="940" width="80" height="80" as="geometry"/>
                </mxCell>
                <mxCell id="SMtu3aT2lYDiVOg0k4Gm-24" value="message: terjadi kesalahan: error" style="shape=parallelogram;perimeter=parallelogramPerimeter;whiteSpace=wrap;html=1;fixedSize=1;" parent="1" vertex="1">
                    <mxGeometry x="-280" y="950" width="120" height="60" as="geometry"/>
                </mxCell>
                <mxCell id="SMtu3aT2lYDiVOg0k4Gm-29" value="" style="edgeStyle=none;html=1;" parent="1" source="SMtu3aT2lYDiVOg0k4Gm-26" target="SMtu3aT2lYDiVOg0k4Gm-28" edge="1">
                    <mxGeometry relative="1" as="geometry"/>
                </mxCell>
                <mxCell id="aGBRnnBapgmO91m6ep9d-2" value="" style="edgeStyle=none;html=1;" parent="1" source="SMtu3aT2lYDiVOg0k4Gm-26" target="aGBRnnBapgmO91m6ep9d-1" edge="1">
                    <mxGeometry relative="1" as="geometry"/>
                </mxCell>
                <mxCell id="SMtu3aT2lYDiVOg0k4Gm-26" value="daftar kolom" style="shape=parallelogram;perimeter=parallelogramPerimeter;whiteSpace=wrap;html=1;fixedSize=1;" parent="1" vertex="1">
                    <mxGeometry x="-120" y="1080" width="120" height="60" as="geometry"/>
                </mxCell>
                <mxCell id="SMtu3aT2lYDiVOg0k4Gm-28" value="stop" style="ellipse;whiteSpace=wrap;html=1;" parent="1" vertex="1">
                    <mxGeometry x="-120" y="1200" width="120" height="80" as="geometry"/>
                </mxCell>
                <mxCell id="SMtu3aT2lYDiVOg0k4Gm-33" value="" style="edgeStyle=none;html=1;" parent="1" source="SMtu3aT2lYDiVOg0k4Gm-31" target="SMtu3aT2lYDiVOg0k4Gm-32" edge="1">
                    <mxGeometry relative="1" as="geometry"/>
                </mxCell>
                <mxCell id="SMtu3aT2lYDiVOg0k4Gm-31" value="start" style="ellipse;whiteSpace=wrap;html=1;" parent="1" vertex="1">
                    <mxGeometry x="-1298" y="40" width="120" height="80" as="geometry"/>
                </mxCell>
                <mxCell id="SMtu3aT2lYDiVOg0k4Gm-35" value="" style="edgeStyle=none;html=1;" parent="1" source="SMtu3aT2lYDiVOg0k4Gm-32" target="SMtu3aT2lYDiVOg0k4Gm-34" edge="1">
                    <mxGeometry relative="1" as="geometry"/>
                </mxCell>
                <mxCell id="SMtu3aT2lYDiVOg0k4Gm-32" value="tentukan file" style="shape=parallelogram;perimeter=parallelogramPerimeter;whiteSpace=wrap;html=1;fixedSize=1;" parent="1" vertex="1">
                    <mxGeometry x="-1298" y="160" width="120" height="60" as="geometry"/>
                </mxCell>
                <mxCell id="SMtu3aT2lYDiVOg0k4Gm-37" value="" style="edgeStyle=none;html=1;" parent="1" source="SMtu3aT2lYDiVOg0k4Gm-34" target="SMtu3aT2lYDiVOg0k4Gm-36" edge="1">
                    <mxGeometry relative="1" as="geometry"/>
                </mxCell>
                <mxCell id="SMtu3aT2lYDiVOg0k4Gm-34" value="baca file" style="whiteSpace=wrap;html=1;" parent="1" vertex="1">
                    <mxGeometry x="-1298" y="260" width="120" height="60" as="geometry"/>
                </mxCell>
                <mxCell id="SMtu3aT2lYDiVOg0k4Gm-39" value="" style="edgeStyle=none;html=1;" parent="1" source="SMtu3aT2lYDiVOg0k4Gm-36" target="SMtu3aT2lYDiVOg0k4Gm-38" edge="1">
                    <mxGeometry relative="1" as="geometry"/>
                </mxCell>
                <mxCell id="SMtu3aT2lYDiVOg0k4Gm-36" value="tentukan sheet" style="shape=parallelogram;perimeter=parallelogramPerimeter;whiteSpace=wrap;html=1;fixedSize=1;" parent="1" vertex="1">
                    <mxGeometry x="-1298" y="360" width="120" height="60" as="geometry"/>
                </mxCell>
                <mxCell id="SMtu3aT2lYDiVOg0k4Gm-41" value="" style="edgeStyle=none;html=1;" parent="1" source="SMtu3aT2lYDiVOg0k4Gm-38" target="SMtu3aT2lYDiVOg0k4Gm-40" edge="1">
                    <mxGeometry relative="1" as="geometry"/>
                </mxCell>
                <mxCell id="SMtu3aT2lYDiVOg0k4Gm-38" value="baca sheet" style="whiteSpace=wrap;html=1;" parent="1" vertex="1">
                    <mxGeometry x="-1298" y="460" width="120" height="60" as="geometry"/>
                </mxCell>
                <mxCell id="SMtu3aT2lYDiVOg0k4Gm-43" value="" style="edgeStyle=none;html=1;" parent="1" source="SMtu3aT2lYDiVOg0k4Gm-40" target="SMtu3aT2lYDiVOg0k4Gm-42" edge="1">
                    <mxGeometry relative="1" as="geometry"/>
                </mxCell>
                <mxCell id="SMtu3aT2lYDiVOg0k4Gm-40" value="tentukan column" style="shape=parallelogram;perimeter=parallelogramPerimeter;whiteSpace=wrap;html=1;fixedSize=1;" parent="1" vertex="1">
                    <mxGeometry x="-1298" y="560" width="120" height="60" as="geometry"/>
                </mxCell>
                <mxCell id="SMtu3aT2lYDiVOg0k4Gm-54" value="" style="edgeStyle=none;html=1;" parent="1" source="SMtu3aT2lYDiVOg0k4Gm-42" target="SMtu3aT2lYDiVOg0k4Gm-48" edge="1">
                    <mxGeometry relative="1" as="geometry"/>
                </mxCell>
                <mxCell id="SMtu3aT2lYDiVOg0k4Gm-42" value="baca column" style="whiteSpace=wrap;html=1;" parent="1" vertex="1">
                    <mxGeometry x="-1298" y="660" width="120" height="60" as="geometry"/>
                </mxCell>
                <mxCell id="SMtu3aT2lYDiVOg0k4Gm-57" value="" style="edgeStyle=none;html=1;" parent="1" source="SMtu3aT2lYDiVOg0k4Gm-46" target="SMtu3aT2lYDiVOg0k4Gm-50" edge="1">
                    <mxGeometry relative="1" as="geometry"/>
                </mxCell>
                <mxCell id="SMtu3aT2lYDiVOg0k4Gm-46" value="message: kolom berhasil dibaca" style="shape=parallelogram;perimeter=parallelogramPerimeter;whiteSpace=wrap;html=1;fixedSize=1;" parent="1" vertex="1">
                    <mxGeometry x="-1148" y="770" width="120" height="60" as="geometry"/>
                </mxCell>
                <mxCell id="SMtu3aT2lYDiVOg0k4Gm-55" value="" style="edgeStyle=none;html=1;" parent="1" source="SMtu3aT2lYDiVOg0k4Gm-48" target="SMtu3aT2lYDiVOg0k4Gm-46" edge="1">
                    <mxGeometry relative="1" as="geometry"/>
                </mxCell>
                <mxCell id="SMtu3aT2lYDiVOg0k4Gm-90" value="Yes" style="edgeLabel;html=1;align=center;verticalAlign=middle;resizable=0;points=[];" parent="SMtu3aT2lYDiVOg0k4Gm-55" vertex="1" connectable="0">
                    <mxGeometry x="-0.1801" relative="1" as="geometry">
                        <mxPoint as="offset"/>
                    </mxGeometry>
                </mxCell>
                <mxCell id="SMtu3aT2lYDiVOg0k4Gm-56" value="" style="edgeStyle=none;html=1;" parent="1" source="SMtu3aT2lYDiVOg0k4Gm-48" target="SMtu3aT2lYDiVOg0k4Gm-52" edge="1">
                    <mxGeometry relative="1" as="geometry"/>
                </mxCell>
                <mxCell id="SMtu3aT2lYDiVOg0k4Gm-91" value="No" style="edgeLabel;html=1;align=center;verticalAlign=middle;resizable=0;points=[];" parent="SMtu3aT2lYDiVOg0k4Gm-56" vertex="1" connectable="0">
                    <mxGeometry x="-0.3667" relative="1" as="geometry">
                        <mxPoint as="offset"/>
                    </mxGeometry>
                </mxCell>
                <mxCell id="SMtu3aT2lYDiVOg0k4Gm-48" value="berhasil?" style="rhombus;whiteSpace=wrap;html=1;" parent="1" vertex="1">
                    <mxGeometry x="-1278" y="760" width="80" height="80" as="geometry"/>
                </mxCell>
                <mxCell id="SMtu3aT2lYDiVOg0k4Gm-67" style="edgeStyle=none;html=1;entryX=1;entryY=0.75;entryDx=0;entryDy=0;" parent="1" source="SMtu3aT2lYDiVOg0k4Gm-50" target="SMtu3aT2lYDiVOg0k4Gm-64" edge="1">
                    <mxGeometry relative="1" as="geometry">
                        <Array as="points">
                            <mxPoint x="-1088" y="1160"/>
                        </Array>
                    </mxGeometry>
                </mxCell>
                <mxCell id="SMtu3aT2lYDiVOg0k4Gm-50" value="hitung &amp;amp; tampilkan data dalam kolom" style="whiteSpace=wrap;html=1;" parent="1" vertex="1">
                    <mxGeometry x="-1148" y="880" width="120" height="60" as="geometry"/>
                </mxCell>
                <mxCell id="SMtu3aT2lYDiVOg0k4Gm-59" value="" style="edgeStyle=none;html=1;" parent="1" source="SMtu3aT2lYDiVOg0k4Gm-52" target="SMtu3aT2lYDiVOg0k4Gm-58" edge="1">
                    <mxGeometry relative="1" as="geometry"/>
                </mxCell>
                <mxCell id="Q9pyrG_VAKmu87TPVAyL-36" value="Yes" style="edgeLabel;html=1;align=center;verticalAlign=middle;resizable=0;points=[];" parent="SMtu3aT2lYDiVOg0k4Gm-59" vertex="1" connectable="0">
                    <mxGeometry x="-0.3679" relative="1" as="geometry">
                        <mxPoint as="offset"/>
                    </mxGeometry>
                </mxCell>
                <mxCell id="SMtu3aT2lYDiVOg0k4Gm-61" value="" style="edgeStyle=none;html=1;" parent="1" source="SMtu3aT2lYDiVOg0k4Gm-52" target="SMtu3aT2lYDiVOg0k4Gm-60" edge="1">
                    <mxGeometry relative="1" as="geometry"/>
                </mxCell>
                <mxCell id="SMtu3aT2lYDiVOg0k4Gm-121" value="No" style="edgeLabel;html=1;align=center;verticalAlign=middle;resizable=0;points=[];" parent="SMtu3aT2lYDiVOg0k4Gm-61" vertex="1" connectable="0">
                    <mxGeometry x="-0.5976" relative="1" as="geometry">
                        <mxPoint as="offset"/>
                    </mxGeometry>
                </mxCell>
                <mxCell id="SMtu3aT2lYDiVOg0k4Gm-52" value="KeyError" style="rhombus;whiteSpace=wrap;html=1;" parent="1" vertex="1">
                    <mxGeometry x="-1278" y="880" width="80" height="80" as="geometry"/>
                </mxCell>
                <mxCell id="SMtu3aT2lYDiVOg0k4Gm-58" value="message: error: kolom tidak ditemukan" style="shape=parallelogram;perimeter=parallelogramPerimeter;whiteSpace=wrap;html=1;fixedSize=1;" parent="1" vertex="1">
                    <mxGeometry x="-1458" y="890" width="120" height="60" as="geometry"/>
                </mxCell>
                <mxCell id="SMtu3aT2lYDiVOg0k4Gm-63" value="" style="edgeStyle=none;html=1;" parent="1" source="SMtu3aT2lYDiVOg0k4Gm-60" target="SMtu3aT2lYDiVOg0k4Gm-62" edge="1">
                    <mxGeometry relative="1" as="geometry"/>
                </mxCell>
                <mxCell id="Q9pyrG_VAKmu87TPVAyL-37" value="Yes" style="edgeLabel;html=1;align=center;verticalAlign=middle;resizable=0;points=[];" parent="SMtu3aT2lYDiVOg0k4Gm-63" vertex="1" connectable="0">
                    <mxGeometry x="-0.3679" relative="1" as="geometry">
                        <mxPoint as="offset"/>
                    </mxGeometry>
                </mxCell>
                <mxCell id="SMtu3aT2lYDiVOg0k4Gm-65" value="" style="edgeStyle=none;html=1;" parent="1" source="SMtu3aT2lYDiVOg0k4Gm-60" target="SMtu3aT2lYDiVOg0k4Gm-64" edge="1">
                    <mxGeometry relative="1" as="geometry"/>
                </mxCell>
                <mxCell id="SMtu3aT2lYDiVOg0k4Gm-60" value="Exception" style="rhombus;whiteSpace=wrap;html=1;" parent="1" vertex="1">
                    <mxGeometry x="-1278" y="1000" width="80" height="80" as="geometry"/>
                </mxCell>
                <mxCell id="SMtu3aT2lYDiVOg0k4Gm-62" value="message: terjadi kesalahan: error" style="shape=parallelogram;perimeter=parallelogramPerimeter;whiteSpace=wrap;html=1;fixedSize=1;" parent="1" vertex="1">
                    <mxGeometry x="-1458" y="1010" width="120" height="60" as="geometry"/>
                </mxCell>
                <mxCell id="SMtu3aT2lYDiVOg0k4Gm-124" value="" style="edgeStyle=none;html=1;fontSize=36;" parent="1" source="SMtu3aT2lYDiVOg0k4Gm-64" target="SMtu3aT2lYDiVOg0k4Gm-123" edge="1">
                    <mxGeometry relative="1" as="geometry"/>
                </mxCell>
                <mxCell id="SMtu3aT2lYDiVOg0k4Gm-64" value="data" style="shape=parallelogram;perimeter=parallelogramPerimeter;whiteSpace=wrap;html=1;fixedSize=1;" parent="1" vertex="1">
                    <mxGeometry x="-1298" y="1120" width="120" height="60" as="geometry"/>
                </mxCell>
                <mxCell id="SMtu3aT2lYDiVOg0k4Gm-83" value="" style="edgeStyle=none;html=1;entryX=-0.017;entryY=0.053;entryDx=0;entryDy=0;exitX=1;exitY=0.5;exitDx=0;exitDy=0;entryPerimeter=0;" parent="1" source="SMtu3aT2lYDiVOg0k4Gm-68" target="SMtu3aT2lYDiVOg0k4Gm-78" edge="1">
                    <mxGeometry relative="1" as="geometry">
                        <Array as="points">
                            <mxPoint x="-1188" y="1392"/>
                            <mxPoint x="-1188" y="1342"/>
                        </Array>
                    </mxGeometry>
                </mxCell>
                <mxCell id="SMtu3aT2lYDiVOg0k4Gm-120" value="Yes" style="edgeLabel;html=1;align=center;verticalAlign=middle;resizable=0;points=[];" parent="SMtu3aT2lYDiVOg0k4Gm-83" vertex="1" connectable="0">
                    <mxGeometry x="0.0205" relative="1" as="geometry">
                        <mxPoint as="offset"/>
                    </mxGeometry>
                </mxCell>
                <mxCell id="Q9pyrG_VAKmu87TPVAyL-21" value="" style="edgeStyle=none;html=1;" parent="1" source="SMtu3aT2lYDiVOg0k4Gm-68" target="SMtu3aT2lYDiVOg0k4Gm-117" edge="1">
                    <mxGeometry relative="1" as="geometry"/>
                </mxCell>
                <mxCell id="Q9pyrG_VAKmu87TPVAyL-35" value="No" style="edgeLabel;html=1;align=center;verticalAlign=middle;resizable=0;points=[];" parent="Q9pyrG_VAKmu87TPVAyL-21" vertex="1" connectable="0">
                    <mxGeometry x="-0.4868" y="-1" relative="1" as="geometry">
                        <mxPoint as="offset"/>
                    </mxGeometry>
                </mxCell>
                <mxCell id="SMtu3aT2lYDiVOg0k4Gm-68" value="date?" style="rhombus;whiteSpace=wrap;html=1;" parent="1" vertex="1">
                    <mxGeometry x="-1278" y="1352" width="80" height="80" as="geometry"/>
                </mxCell>
                <mxCell id="SMtu3aT2lYDiVOg0k4Gm-87" value="" style="edgeStyle=none;html=1;" parent="1" source="SMtu3aT2lYDiVOg0k4Gm-78" target="SMtu3aT2lYDiVOg0k4Gm-86" edge="1">
                    <mxGeometry relative="1" as="geometry"/>
                </mxCell>
                <mxCell id="SMtu3aT2lYDiVOg0k4Gm-78" value="date" style="swimlane;fontStyle=0;childLayout=stackLayout;horizontal=1;startSize=30;horizontalStack=0;resizeParent=1;resizeParentMax=0;resizeLast=0;collapsible=1;marginBottom=0;whiteSpace=wrap;html=1;" parent="1" vertex="1">
                    <mxGeometry x="-1168" y="1332" width="140" height="150" as="geometry"/>
                </mxCell>
                <mxCell id="SMtu3aT2lYDiVOg0k4Gm-79" value="tanggal submit" style="text;strokeColor=none;fillColor=none;align=left;verticalAlign=middle;spacingLeft=4;spacingRight=4;overflow=hidden;points=[[0,0.5],[1,0.5]];portConstraint=eastwest;rotatable=0;whiteSpace=wrap;html=1;" parent="SMtu3aT2lYDiVOg0k4Gm-78" vertex="1">
                    <mxGeometry y="30" width="140" height="30" as="geometry"/>
                </mxCell>
                <mxCell id="SMtu3aT2lYDiVOg0k4Gm-80" value="tanggal validasi" style="text;strokeColor=none;fillColor=none;align=left;verticalAlign=middle;spacingLeft=4;spacingRight=4;overflow=hidden;points=[[0,0.5],[1,0.5]];portConstraint=eastwest;rotatable=0;whiteSpace=wrap;html=1;" parent="SMtu3aT2lYDiVOg0k4Gm-78" vertex="1">
                    <mxGeometry y="60" width="140" height="30" as="geometry"/>
                </mxCell>
                <mxCell id="SMtu3aT2lYDiVOg0k4Gm-81" value="tanggal pembayaran" style="text;strokeColor=none;fillColor=none;align=left;verticalAlign=middle;spacingLeft=4;spacingRight=4;overflow=hidden;points=[[0,0.5],[1,0.5]];portConstraint=eastwest;rotatable=0;whiteSpace=wrap;html=1;" parent="SMtu3aT2lYDiVOg0k4Gm-78" vertex="1">
                    <mxGeometry y="90" width="140" height="30" as="geometry"/>
                </mxCell>
                <mxCell id="SMtu3aT2lYDiVOg0k4Gm-82" value="tanggal terbit" style="text;strokeColor=none;fillColor=none;align=left;verticalAlign=middle;spacingLeft=4;spacingRight=4;overflow=hidden;points=[[0,0.5],[1,0.5]];portConstraint=eastwest;rotatable=0;whiteSpace=wrap;html=1;" parent="SMtu3aT2lYDiVOg0k4Gm-78" vertex="1">
                    <mxGeometry y="120" width="140" height="30" as="geometry"/>
                </mxCell>
                <mxCell id="SMtu3aT2lYDiVOg0k4Gm-89" value="" style="edgeStyle=none;html=1;" parent="1" source="SMtu3aT2lYDiVOg0k4Gm-86" target="SMtu3aT2lYDiVOg0k4Gm-88" edge="1">
                    <mxGeometry relative="1" as="geometry"/>
                </mxCell>
                <mxCell id="SMtu3aT2lYDiVOg0k4Gm-92" value="Yes" style="edgeLabel;html=1;align=center;verticalAlign=middle;resizable=0;points=[];" parent="SMtu3aT2lYDiVOg0k4Gm-89" vertex="1" connectable="0">
                    <mxGeometry x="-0.2148" y="-1" relative="1" as="geometry">
                        <mxPoint as="offset"/>
                    </mxGeometry>
                </mxCell>
                <mxCell id="SMtu3aT2lYDiVOg0k4Gm-127" value="" style="edgeStyle=none;html=1;fontSize=36;" parent="1" source="SMtu3aT2lYDiVOg0k4Gm-86" target="SMtu3aT2lYDiVOg0k4Gm-126" edge="1">
                    <mxGeometry relative="1" as="geometry"/>
                </mxCell>
                <mxCell id="Q9pyrG_VAKmu87TPVAyL-29" value="No" style="edgeLabel;html=1;align=center;verticalAlign=middle;resizable=0;points=[];" parent="SMtu3aT2lYDiVOg0k4Gm-127" vertex="1" connectable="0">
                    <mxGeometry x="-0.3115" y="-1" relative="1" as="geometry">
                        <mxPoint as="offset"/>
                    </mxGeometry>
                </mxCell>
                <mxCell id="SMtu3aT2lYDiVOg0k4Gm-86" value="sesuai?" style="rhombus;whiteSpace=wrap;html=1;fontStyle=0;startSize=30;" parent="1" vertex="1">
                    <mxGeometry x="-1138" y="1532" width="80" height="80" as="geometry"/>
                </mxCell>
                <mxCell id="SMtu3aT2lYDiVOg0k4Gm-95" value="" style="edgeStyle=none;html=1;" parent="1" source="SMtu3aT2lYDiVOg0k4Gm-88" target="SMtu3aT2lYDiVOg0k4Gm-94" edge="1">
                    <mxGeometry relative="1" as="geometry"/>
                </mxCell>
                <mxCell id="SMtu3aT2lYDiVOg0k4Gm-103" style="edgeStyle=none;html=1;exitX=0.5;exitY=1;exitDx=0;exitDy=0;entryX=0.5;entryY=0;entryDx=0;entryDy=0;" parent="1" source="SMtu3aT2lYDiVOg0k4Gm-88" target="SMtu3aT2lYDiVOg0k4Gm-102" edge="1">
                    <mxGeometry relative="1" as="geometry"/>
                </mxCell>
                <mxCell id="SMtu3aT2lYDiVOg0k4Gm-88" value="operasi pengurangan&lt;br&gt;&lt;ol&gt;&lt;li&gt;tanggal validasi - tanggal submit&lt;/li&gt;&lt;li&gt;tanggal terbit - tanggal pembayaran&lt;/li&gt;&lt;/ol&gt;" style="whiteSpace=wrap;html=1;fontStyle=0;startSize=30;" parent="1" vertex="1">
                    <mxGeometry x="-996" y="1513" width="180" height="110" as="geometry"/>
                </mxCell>
                <mxCell id="Q9pyrG_VAKmu87TPVAyL-12" style="edgeStyle=none;html=1;exitX=0.5;exitY=1;exitDx=0;exitDy=0;entryX=0.369;entryY=1.008;entryDx=0;entryDy=0;entryPerimeter=0;" parent="1" target="SMtu3aT2lYDiVOg0k4Gm-117" edge="1">
                    <mxGeometry relative="1" as="geometry">
                        <mxPoint x="-1414.28" y="1423.6799999999998" as="targetPoint"/>
                        <mxPoint x="-911" y="1752" as="sourcePoint"/>
                        <Array as="points">
                            <mxPoint x="-913" y="1770"/>
                            <mxPoint x="-1258" y="1770"/>
                        </Array>
                    </mxGeometry>
                </mxCell>
                <mxCell id="SMtu3aT2lYDiVOg0k4Gm-94" value="interval waktu validasi" style="shape=parallelogram;perimeter=parallelogramPerimeter;whiteSpace=wrap;html=1;fixedSize=1;fontStyle=0;startSize=30;" parent="1" vertex="1">
                    <mxGeometry x="-966" y="1692" width="120" height="60" as="geometry"/>
                </mxCell>
                <mxCell id="Q9pyrG_VAKmu87TPVAyL-14" style="edgeStyle=none;html=1;exitX=0.5;exitY=1;exitDx=0;exitDy=0;entryX=0.5;entryY=1;entryDx=0;entryDy=0;" parent="1" target="SMtu3aT2lYDiVOg0k4Gm-117" edge="1">
                    <mxGeometry relative="1" as="geometry">
                        <mxPoint x="-1397.3600000000001" y="1422.0000000000002" as="targetPoint"/>
                        <mxPoint x="-736" y="1751.34" as="sourcePoint"/>
                        <Array as="points">
                            <mxPoint x="-736" y="1759.34"/>
                            <mxPoint x="-1238" y="1759"/>
                        </Array>
                    </mxGeometry>
                </mxCell>
                <mxCell id="SMtu3aT2lYDiVOg0k4Gm-102" value="interval waktu terbit" style="shape=parallelogram;perimeter=parallelogramPerimeter;whiteSpace=wrap;html=1;fixedSize=1;" parent="1" vertex="1">
                    <mxGeometry x="-788" y="1692" width="120" height="60" as="geometry"/>
                </mxCell>
                <mxCell id="SMtu3aT2lYDiVOg0k4Gm-110" value="" style="swimlane;startSize=0;strokeColor=#182EF0;shadow=0;fillColor=#18141D;" parent="1" vertex="1">
                    <mxGeometry x="440" y="-110" width="780" height="1400" as="geometry"/>
                </mxCell>
                <mxCell id="SMtu3aT2lYDiVOg0k4Gm-122" value="&lt;font style=&quot;font-size: 36px;&quot;&gt;&lt;b&gt;Logic Function read sheet&lt;/b&gt;&lt;/font&gt;" style="text;html=1;strokeColor=none;fillColor=none;align=center;verticalAlign=middle;whiteSpace=wrap;rounded=0;shadow=0;" parent="SMtu3aT2lYDiVOg0k4Gm-110" vertex="1">
                    <mxGeometry x="253" y="40" width="460" height="30" as="geometry"/>
                </mxCell>
                <mxCell id="Q9pyrG_VAKmu87TPVAyL-24" value="" style="edgeStyle=none;html=1;entryX=0;entryY=0.5;entryDx=0;entryDy=0;" parent="1" source="SMtu3aT2lYDiVOg0k4Gm-117" target="Q9pyrG_VAKmu87TPVAyL-20" edge="1">
                    <mxGeometry relative="1" as="geometry">
                        <mxPoint x="-1388" y="2680" as="targetPoint"/>
                        <Array as="points">
                            <mxPoint x="-1388" y="1502"/>
                            <mxPoint x="-1388" y="2671"/>
                        </Array>
                    </mxGeometry>
                </mxCell>
                <mxCell id="SMtu3aT2lYDiVOg0k4Gm-117" value="data dipilih" style="shape=parallelogram;perimeter=parallelogramPerimeter;whiteSpace=wrap;html=1;fixedSize=1;" parent="1" vertex="1">
                    <mxGeometry x="-1298" y="1472" width="120" height="60" as="geometry"/>
                </mxCell>
                <mxCell id="SMtu3aT2lYDiVOg0k4Gm-125" value="" style="edgeStyle=none;html=1;fontSize=36;" parent="1" source="SMtu3aT2lYDiVOg0k4Gm-123" target="SMtu3aT2lYDiVOg0k4Gm-68" edge="1">
                    <mxGeometry relative="1" as="geometry"/>
                </mxCell>
                <mxCell id="SMtu3aT2lYDiVOg0k4Gm-123" value="input: pilih data&amp;nbsp;" style="shape=parallelogram;perimeter=parallelogramPerimeter;whiteSpace=wrap;html=1;fixedSize=1;" parent="1" vertex="1">
                    <mxGeometry x="-1298" y="1220" width="120" height="60" as="geometry"/>
                </mxCell>
                <mxCell id="SMtu3aT2lYDiVOg0k4Gm-130" value="" style="edgeStyle=none;html=1;fontSize=36;entryX=0;entryY=0.364;entryDx=0;entryDy=0;entryPerimeter=0;" parent="1" source="SMtu3aT2lYDiVOg0k4Gm-126" target="SMtu3aT2lYDiVOg0k4Gm-129" edge="1">
                    <mxGeometry relative="1" as="geometry">
                        <mxPoint x="-988" y="1840" as="targetPoint"/>
                    </mxGeometry>
                </mxCell>
                <mxCell id="Q9pyrG_VAKmu87TPVAyL-28" value="Yes" style="edgeLabel;html=1;align=center;verticalAlign=middle;resizable=0;points=[];" parent="SMtu3aT2lYDiVOg0k4Gm-130" vertex="1" connectable="0">
                    <mxGeometry x="-0.3818" relative="1" as="geometry">
                        <mxPoint as="offset"/>
                    </mxGeometry>
                </mxCell>
                <mxCell id="SMtu3aT2lYDiVOg0k4Gm-136" value="" style="edgeStyle=none;html=1;fontSize=36;" parent="1" source="SMtu3aT2lYDiVOg0k4Gm-126" target="SMtu3aT2lYDiVOg0k4Gm-135" edge="1">
                    <mxGeometry relative="1" as="geometry"/>
                </mxCell>
                <mxCell id="Q9pyrG_VAKmu87TPVAyL-30" value="No" style="edgeLabel;html=1;align=center;verticalAlign=middle;resizable=0;points=[];" parent="SMtu3aT2lYDiVOg0k4Gm-136" vertex="1" connectable="0">
                    <mxGeometry x="-0.3254" y="-2" relative="1" as="geometry">
                        <mxPoint as="offset"/>
                    </mxGeometry>
                </mxCell>
                <mxCell id="SMtu3aT2lYDiVOg0k4Gm-126" value="sesuai?" style="rhombus;whiteSpace=wrap;html=1;fontStyle=0;startSize=30;" parent="1" vertex="1">
                    <mxGeometry x="-1138" y="1800" width="80" height="80" as="geometry"/>
                </mxCell>
                <mxCell id="Q9pyrG_VAKmu87TPVAyL-3" value="" style="edgeStyle=none;html=1;exitX=0.401;exitY=0.995;exitDx=0;exitDy=0;exitPerimeter=0;" parent="1" source="SMtu3aT2lYDiVOg0k4Gm-129" target="Q9pyrG_VAKmu87TPVAyL-1" edge="1">
                    <mxGeometry relative="1" as="geometry"/>
                </mxCell>
                <mxCell id="Q9pyrG_VAKmu87TPVAyL-4" style="edgeStyle=none;html=1;entryX=0.296;entryY=-0.008;entryDx=0;entryDy=0;entryPerimeter=0;exitX=0.404;exitY=1.001;exitDx=0;exitDy=0;exitPerimeter=0;" parent="1" source="SMtu3aT2lYDiVOg0k4Gm-129" target="Q9pyrG_VAKmu87TPVAyL-2" edge="1">
                    <mxGeometry relative="1" as="geometry">
                        <mxPoint x="-898" y="1910" as="sourcePoint"/>
                    </mxGeometry>
                </mxCell>
                <mxCell id="SMtu3aT2lYDiVOg0k4Gm-129" value="operasi pengurangan&lt;br&gt;&lt;ol&gt;&lt;li&gt;tanggal validasi - tanggal submit&lt;/li&gt;&lt;li&gt;tanggal terbit - tanggal validasi&lt;/li&gt;&lt;/ol&gt;" style="whiteSpace=wrap;html=1;fontStyle=0;startSize=30;" parent="1" vertex="1">
                    <mxGeometry x="-978" y="1800" width="180" height="110" as="geometry"/>
                </mxCell>
                <mxCell id="SMtu3aT2lYDiVOg0k4Gm-138" value="" style="edgeStyle=none;html=1;fontSize=36;exitX=1;exitY=0.5;exitDx=0;exitDy=0;entryX=-0.006;entryY=0.394;entryDx=0;entryDy=0;entryPerimeter=0;" parent="1" source="SMtu3aT2lYDiVOg0k4Gm-135" target="SMtu3aT2lYDiVOg0k4Gm-137" edge="1">
                    <mxGeometry relative="1" as="geometry"/>
                </mxCell>
                <mxCell id="Q9pyrG_VAKmu87TPVAyL-31" value="Yes" style="edgeLabel;html=1;align=center;verticalAlign=middle;resizable=0;points=[];" parent="SMtu3aT2lYDiVOg0k4Gm-138" vertex="1" connectable="0">
                    <mxGeometry x="-0.3335" y="2" relative="1" as="geometry">
                        <mxPoint as="offset"/>
                    </mxGeometry>
                </mxCell>
                <mxCell id="SMtu3aT2lYDiVOg0k4Gm-140" value="" style="edgeStyle=none;html=1;fontSize=36;" parent="1" source="SMtu3aT2lYDiVOg0k4Gm-135" target="SMtu3aT2lYDiVOg0k4Gm-139" edge="1">
                    <mxGeometry relative="1" as="geometry"/>
                </mxCell>
                <mxCell id="Q9pyrG_VAKmu87TPVAyL-32" value="No" style="edgeLabel;html=1;align=center;verticalAlign=middle;resizable=0;points=[];" parent="SMtu3aT2lYDiVOg0k4Gm-140" vertex="1" connectable="0">
                    <mxGeometry x="-0.4196" y="-1" relative="1" as="geometry">
                        <mxPoint as="offset"/>
                    </mxGeometry>
                </mxCell>
                <mxCell id="SMtu3aT2lYDiVOg0k4Gm-135" value="sesuai?" style="rhombus;whiteSpace=wrap;html=1;fontStyle=0;startSize=30;" parent="1" vertex="1">
                    <mxGeometry x="-1138" y="2070" width="80" height="80" as="geometry"/>
                </mxCell>
                <mxCell id="Q9pyrG_VAKmu87TPVAyL-6" value="" style="edgeStyle=none;html=1;exitX=0.407;exitY=1.003;exitDx=0;exitDy=0;exitPerimeter=0;" parent="1" source="SMtu3aT2lYDiVOg0k4Gm-137" target="Q9pyrG_VAKmu87TPVAyL-5" edge="1">
                    <mxGeometry relative="1" as="geometry"/>
                </mxCell>
                <mxCell id="SMtu3aT2lYDiVOg0k4Gm-137" value="operasi pengurangan&lt;br&gt;&lt;ol&gt;&lt;li&gt;tanggal ditanda tangan - tanggal submit&lt;/li&gt;&lt;/ol&gt;" style="whiteSpace=wrap;html=1;fontStyle=0;startSize=30;" parent="1" vertex="1">
                    <mxGeometry x="-978" y="2080" width="180" height="76" as="geometry"/>
                </mxCell>
                <mxCell id="SMtu3aT2lYDiVOg0k4Gm-142" value="" style="edgeStyle=none;html=1;fontSize=36;" parent="1" source="SMtu3aT2lYDiVOg0k4Gm-139" target="SMtu3aT2lYDiVOg0k4Gm-141" edge="1">
                    <mxGeometry relative="1" as="geometry"/>
                </mxCell>
                <mxCell id="Q9pyrG_VAKmu87TPVAyL-33" value="Yes" style="edgeLabel;html=1;align=center;verticalAlign=middle;resizable=0;points=[];" parent="SMtu3aT2lYDiVOg0k4Gm-142" vertex="1" connectable="0">
                    <mxGeometry x="-0.3294" relative="1" as="geometry">
                        <mxPoint as="offset"/>
                    </mxGeometry>
                </mxCell>
                <mxCell id="SMtu3aT2lYDiVOg0k4Gm-144" value="" style="edgeStyle=none;html=1;fontSize=36;" parent="1" source="SMtu3aT2lYDiVOg0k4Gm-139" target="SMtu3aT2lYDiVOg0k4Gm-143" edge="1">
                    <mxGeometry relative="1" as="geometry"/>
                </mxCell>
                <mxCell id="Q9pyrG_VAKmu87TPVAyL-34" value="No" style="edgeLabel;html=1;align=center;verticalAlign=middle;resizable=0;points=[];" parent="SMtu3aT2lYDiVOg0k4Gm-144" vertex="1" connectable="0">
                    <mxGeometry x="-0.4998" relative="1" as="geometry">
                        <mxPoint as="offset"/>
                    </mxGeometry>
                </mxCell>
                <mxCell id="SMtu3aT2lYDiVOg0k4Gm-139" value="sesuai?" style="rhombus;whiteSpace=wrap;html=1;fontStyle=0;startSize=30;" parent="1" vertex="1">
                    <mxGeometry x="-1138" y="2340" width="80" height="80" as="geometry"/>
                </mxCell>
                <mxCell id="Q9pyrG_VAKmu87TPVAyL-8" value="" style="edgeStyle=none;html=1;exitX=0.413;exitY=1.005;exitDx=0;exitDy=0;exitPerimeter=0;" parent="1" source="SMtu3aT2lYDiVOg0k4Gm-141" edge="1">
                    <mxGeometry relative="1" as="geometry">
                        <mxPoint x="-905.3599999999999" y="2433.68" as="sourcePoint"/>
                        <mxPoint x="-905.1251158480075" y="2489.9999999999995" as="targetPoint"/>
                    </mxGeometry>
                </mxCell>
                <mxCell id="Q9pyrG_VAKmu87TPVAyL-10" style="edgeStyle=none;html=1;exitX=0.413;exitY=1.002;exitDx=0;exitDy=0;entryX=0.25;entryY=0;entryDx=0;entryDy=0;exitPerimeter=0;" parent="1" source="SMtu3aT2lYDiVOg0k4Gm-141" target="Q9pyrG_VAKmu87TPVAyL-9" edge="1">
                    <mxGeometry relative="1" as="geometry">
                        <mxPoint x="-758" y="2480" as="targetPoint"/>
                    </mxGeometry>
                </mxCell>
                <mxCell id="SMtu3aT2lYDiVOg0k4Gm-141" value="operasi pengurangan&lt;br&gt;&lt;ol&gt;&lt;li&gt;tanggal validasi - tanggal pengajuan&lt;/li&gt;&lt;li&gt;tanggal ditanda tangan - tanggal validasi&lt;/li&gt;&lt;/ol&gt;" style="whiteSpace=wrap;html=1;fontStyle=0;startSize=30;" parent="1" vertex="1">
                    <mxGeometry x="-978" y="2325" width="180" height="110" as="geometry"/>
                </mxCell>
                <mxCell id="Q9pyrG_VAKmu87TPVAyL-27" style="edgeStyle=none;html=1;exitX=0.5;exitY=1;exitDx=0;exitDy=0;entryX=1;entryY=0.5;entryDx=0;entryDy=0;" parent="1" source="SMtu3aT2lYDiVOg0k4Gm-143" target="Q9pyrG_VAKmu87TPVAyL-25" edge="1">
                    <mxGeometry relative="1" as="geometry">
                        <mxPoint x="-1098" y="2830" as="targetPoint"/>
                        <Array as="points">
                            <mxPoint x="-1098" y="2800"/>
                        </Array>
                    </mxGeometry>
                </mxCell>
                <mxCell id="SMtu3aT2lYDiVOg0k4Gm-143" value="message: input tidak valid" style="shape=parallelogram;perimeter=parallelogramPerimeter;whiteSpace=wrap;html=1;fixedSize=1;fontStyle=0;startSize=30;" parent="1" vertex="1">
                    <mxGeometry x="-1158" y="2510" width="120" height="60" as="geometry"/>
                </mxCell>
                <mxCell id="Q9pyrG_VAKmu87TPVAyL-15" style="edgeStyle=none;html=1;exitX=0.5;exitY=1;exitDx=0;exitDy=0;entryX=0.25;entryY=1;entryDx=0;entryDy=0;" parent="1" source="Q9pyrG_VAKmu87TPVAyL-1" target="SMtu3aT2lYDiVOg0k4Gm-117" edge="1">
                    <mxGeometry relative="1" as="geometry">
                        <mxPoint x="-1458" y="2040" as="targetPoint"/>
                        <Array as="points">
                            <mxPoint x="-906" y="2040"/>
                            <mxPoint x="-1278" y="2040"/>
                        </Array>
                    </mxGeometry>
                </mxCell>
                <mxCell id="Q9pyrG_VAKmu87TPVAyL-1" value="interval waktu validasi" style="shape=parallelogram;perimeter=parallelogramPerimeter;whiteSpace=wrap;html=1;fixedSize=1;fontStyle=0;startSize=30;" parent="1" vertex="1">
                    <mxGeometry x="-966" y="1960" width="120" height="60" as="geometry"/>
                </mxCell>
                <mxCell id="Q9pyrG_VAKmu87TPVAyL-16" style="edgeStyle=none;html=1;exitX=0.5;exitY=1;exitDx=0;exitDy=0;entryX=0.644;entryY=1.022;entryDx=0;entryDy=0;entryPerimeter=0;" parent="1" target="SMtu3aT2lYDiVOg0k4Gm-117" edge="1">
                    <mxGeometry relative="1" as="geometry">
                        <mxPoint x="-1378" y="1410" as="targetPoint"/>
                        <mxPoint x="-741" y="2020" as="sourcePoint"/>
                        <Array as="points">
                            <mxPoint x="-741" y="2050"/>
                            <mxPoint x="-1221" y="2050"/>
                        </Array>
                    </mxGeometry>
                </mxCell>
                <mxCell id="Q9pyrG_VAKmu87TPVAyL-2" value="interval waktu terbit" style="shape=parallelogram;perimeter=parallelogramPerimeter;whiteSpace=wrap;html=1;fixedSize=1;" parent="1" vertex="1">
                    <mxGeometry x="-788" y="1960" width="120" height="60" as="geometry"/>
                </mxCell>
                <mxCell id="Q9pyrG_VAKmu87TPVAyL-17" style="edgeStyle=none;html=1;exitX=0.5;exitY=1;exitDx=0;exitDy=0;entryX=0.75;entryY=1;entryDx=0;entryDy=0;" parent="1" source="Q9pyrG_VAKmu87TPVAyL-5" target="SMtu3aT2lYDiVOg0k4Gm-117" edge="1">
                    <mxGeometry relative="1" as="geometry">
                        <mxPoint x="-1358" y="2120" as="targetPoint"/>
                        <Array as="points">
                            <mxPoint x="-908" y="2280"/>
                            <mxPoint x="-1208" y="2280"/>
                        </Array>
                    </mxGeometry>
                </mxCell>
                <mxCell id="Q9pyrG_VAKmu87TPVAyL-5" value="interval waktu ditandatangan" style="shape=parallelogram;perimeter=parallelogramPerimeter;whiteSpace=wrap;html=1;fixedSize=1;" parent="1" vertex="1">
                    <mxGeometry x="-966" y="2210" width="120" height="60" as="geometry"/>
                </mxCell>
                <mxCell id="Q9pyrG_VAKmu87TPVAyL-18" style="edgeStyle=none;html=1;exitX=0.5;exitY=1;exitDx=0;exitDy=0;entryX=0.111;entryY=1.009;entryDx=0;entryDy=0;entryPerimeter=0;" parent="1" source="Q9pyrG_VAKmu87TPVAyL-7" target="SMtu3aT2lYDiVOg0k4Gm-117" edge="1">
                    <mxGeometry relative="1" as="geometry">
                        <mxPoint x="-1518" y="1560" as="targetPoint"/>
                        <Array as="points">
                            <mxPoint x="-908" y="2580"/>
                            <mxPoint x="-1285" y="2580"/>
                        </Array>
                    </mxGeometry>
                </mxCell>
                <mxCell id="Q9pyrG_VAKmu87TPVAyL-7" value="interval waktu validasi" style="shape=parallelogram;perimeter=parallelogramPerimeter;whiteSpace=wrap;html=1;fixedSize=1;fontStyle=0;startSize=30;" parent="1" vertex="1">
                    <mxGeometry x="-966" y="2490" width="120" height="60" as="geometry"/>
                </mxCell>
                <mxCell id="Q9pyrG_VAKmu87TPVAyL-19" style="edgeStyle=none;html=1;exitX=0.5;exitY=1;exitDx=0;exitDy=0;entryX=1;entryY=0.75;entryDx=0;entryDy=0;" parent="1" source="Q9pyrG_VAKmu87TPVAyL-9" target="SMtu3aT2lYDiVOg0k4Gm-117" edge="1">
                    <mxGeometry relative="1" as="geometry">
                        <mxPoint x="-1358" y="2460" as="targetPoint"/>
                        <Array as="points">
                            <mxPoint x="-728" y="2590"/>
                            <mxPoint x="-1192" y="2590"/>
                        </Array>
                    </mxGeometry>
                </mxCell>
                <mxCell id="Q9pyrG_VAKmu87TPVAyL-9" value="interval waktu ditandatangan" style="shape=parallelogram;perimeter=parallelogramPerimeter;whiteSpace=wrap;html=1;fixedSize=1;" parent="1" vertex="1">
                    <mxGeometry x="-788" y="2490" width="120" height="60" as="geometry"/>
                </mxCell>
                <mxCell id="Q9pyrG_VAKmu87TPVAyL-26" value="" style="edgeStyle=none;html=1;" parent="1" source="Q9pyrG_VAKmu87TPVAyL-20" target="Q9pyrG_VAKmu87TPVAyL-25" edge="1">
                    <mxGeometry relative="1" as="geometry"/>
                </mxCell>
                <mxCell id="Q9pyrG_VAKmu87TPVAyL-20" value="display data dipillih" style="shape=parallelogram;perimeter=parallelogramPerimeter;whiteSpace=wrap;html=1;fixedSize=1;" parent="1" vertex="1">
                    <mxGeometry x="-1298" y="2641" width="120" height="60" as="geometry"/>
                </mxCell>
                <mxCell id="Q9pyrG_VAKmu87TPVAyL-25" value="stop" style="ellipse;whiteSpace=wrap;html=1;" parent="1" vertex="1">
                    <mxGeometry x="-1298" y="2760" width="120" height="80" as="geometry"/>
                </mxCell>
                <mxCell id="aGBRnnBapgmO91m6ep9d-4" value="" style="edgeStyle=none;html=1;" parent="1" source="aGBRnnBapgmO91m6ep9d-1" target="aGBRnnBapgmO91m6ep9d-3" edge="1">
                    <mxGeometry relative="1" as="geometry"/>
                </mxCell>
                <mxCell id="aGBRnnBapgmO91m6ep9d-1" value="input column" style="shape=parallelogram;perimeter=parallelogramPerimeter;whiteSpace=wrap;html=1;fixedSize=1;" parent="1" vertex="1">
                    <mxGeometry x="-320" y="1080" width="120" height="60" as="geometry"/>
                </mxCell>
                <mxCell id="aGBRnnBapgmO91m6ep9d-6" value="" style="edgeStyle=none;html=1;" parent="1" source="aGBRnnBapgmO91m6ep9d-3" target="aGBRnnBapgmO91m6ep9d-5" edge="1">
                    <mxGeometry relative="1" as="geometry"/>
                </mxCell>
                <mxCell id="aGBRnnBapgmO91m6ep9d-3" value="cari column" style="whiteSpace=wrap;html=1;" parent="1" vertex="1">
                    <mxGeometry x="-320" y="1200" width="120" height="60" as="geometry"/>
                </mxCell>
                <mxCell id="aGBRnnBapgmO91m6ep9d-8" value="" style="edgeStyle=none;html=1;entryX=1;entryY=0.75;entryDx=0;entryDy=0;" parent="1" source="aGBRnnBapgmO91m6ep9d-5" target="SMtu3aT2lYDiVOg0k4Gm-40" edge="1">
                    <mxGeometry relative="1" as="geometry">
                        <mxPoint x="-760" y="590" as="targetPoint"/>
                        <Array as="points">
                            <mxPoint x="-760" y="1350"/>
                            <mxPoint x="-760" y="602"/>
                        </Array>
                    </mxGeometry>
                </mxCell>
                <mxCell id="aGBRnnBapgmO91m6ep9d-5" value="tampilkan column" style="shape=parallelogram;perimeter=parallelogramPerimeter;whiteSpace=wrap;html=1;fixedSize=1;" parent="1" vertex="1">
                    <mxGeometry x="-320" y="1320" width="120" height="60" as="geometry"/>
                </mxCell>
                <mxCell id="aGBRnnBapgmO91m6ep9d-19" value="" style="swimlane;startSize=0;strokeColor=#0DF005;shadow=0;fillColor=#18141D;" parent="1" vertex="1">
                    <mxGeometry x="-510" y="-110" width="790" height="1550" as="geometry"/>
                </mxCell>
                <mxCell id="aGBRnnBapgmO91m6ep9d-20" value="&lt;font style=&quot;font-size: 36px;&quot;&gt;&lt;b&gt;Logic Function read column&lt;/b&gt;&lt;/font&gt;" style="text;html=1;strokeColor=none;fillColor=none;align=center;verticalAlign=middle;whiteSpace=wrap;rounded=0;shadow=0;" parent="aGBRnnBapgmO91m6ep9d-19" vertex="1">
                    <mxGeometry x="194" y="40" width="490" height="30" as="geometry"/>
                </mxCell>
                <mxCell id="aGBRnnBapgmO91m6ep9d-21" value="" style="swimlane;startSize=0;strokeColor=#F00202;shadow=0;fillColor=#18141D;" parent="1" vertex="1">
                    <mxGeometry x="-1651" y="-115" width="1060" height="3010" as="geometry"/>
                </mxCell>
                <mxCell id="aGBRnnBapgmO91m6ep9d-22" value="&lt;font style=&quot;font-size: 36px;&quot;&gt;&lt;b&gt;Logic Function read data&lt;/b&gt;&lt;/font&gt;" style="text;html=1;strokeColor=none;fillColor=none;align=center;verticalAlign=middle;whiteSpace=wrap;rounded=0;shadow=0;" parent="aGBRnnBapgmO91m6ep9d-21" vertex="1">
                    <mxGeometry x="194" y="40" width="490" height="30" as="geometry"/>
                </mxCell>
            </root>
        </mxGraphModel>
    </diagram>
    <diagram id="dPeVMvWNPvMWWO_qMC4b" name="main">
        <mxGraphModel dx="914" dy="944" grid="1" gridSize="10" guides="1" tooltips="1" connect="1" arrows="1" fold="1" page="0" pageScale="1" pageWidth="850" pageHeight="1100" math="0" shadow="0">
            <root>
                <mxCell id="0"/>
                <mxCell id="1" parent="0"/>
                <mxCell id="kWPS0rudbNq3SWSWkD97-14" value="" style="edgeStyle=none;html=1;" parent="1" source="aLujG4GxXykHUJVtc95M-1" target="kWPS0rudbNq3SWSWkD97-13" edge="1">
                    <mxGeometry relative="1" as="geometry"/>
                </mxCell>
                <mxCell id="aLujG4GxXykHUJVtc95M-1" value="start" style="ellipse;whiteSpace=wrap;html=1;" parent="1" vertex="1">
                    <mxGeometry x="365" y="-50" width="120" height="80" as="geometry"/>
                </mxCell>
                <mxCell id="kWPS0rudbNq3SWSWkD97-20" value="" style="edgeStyle=none;html=1;" parent="1" source="aLujG4GxXykHUJVtc95M-2" target="kWPS0rudbNq3SWSWkD97-19" edge="1">
                    <mxGeometry relative="1" as="geometry"/>
                </mxCell>
                <mxCell id="aLujG4GxXykHUJVtc95M-2" value="main" style="whiteSpace=wrap;html=1;" parent="1" vertex="1">
                    <mxGeometry x="365" y="180" width="120" height="60" as="geometry"/>
                </mxCell>
                <mxCell id="aLujG4GxXykHUJVtc95M-22" style="edgeStyle=none;html=1;entryX=1;entryY=0.5;entryDx=0;entryDy=0;" parent="1" source="aLujG4GxXykHUJVtc95M-8" target="aLujG4GxXykHUJVtc95M-2" edge="1">
                    <mxGeometry relative="1" as="geometry"/>
                </mxCell>
                <mxCell id="aLujG4GxXykHUJVtc95M-8" value="ReadExcel" style="rounded=0;whiteSpace=wrap;html=1;" parent="1" vertex="1">
                    <mxGeometry x="560" y="180" width="120" height="60" as="geometry"/>
                </mxCell>
                <mxCell id="aLujG4GxXykHUJVtc95M-18" style="edgeStyle=none;html=1;entryX=1;entryY=0.5;entryDx=0;entryDy=0;exitX=0;exitY=0.333;exitDx=0;exitDy=0;exitPerimeter=0;" parent="1" source="aLujG4GxXykHUJVtc95M-13" target="aLujG4GxXykHUJVtc95M-8" edge="1">
                    <mxGeometry relative="1" as="geometry"/>
                </mxCell>
                <mxCell id="aLujG4GxXykHUJVtc95M-13" value="read_sheet" style="rounded=0;whiteSpace=wrap;html=1;" parent="1" vertex="1">
                    <mxGeometry x="760" y="70" width="120" height="60" as="geometry"/>
                </mxCell>
                <mxCell id="aLujG4GxXykHUJVtc95M-20" style="edgeStyle=none;html=1;entryX=1;entryY=0.5;entryDx=0;entryDy=0;" parent="1" source="aLujG4GxXykHUJVtc95M-14" target="aLujG4GxXykHUJVtc95M-8" edge="1">
                    <mxGeometry relative="1" as="geometry"/>
                </mxCell>
                <mxCell id="aLujG4GxXykHUJVtc95M-14" value="read_column" style="rounded=0;whiteSpace=wrap;html=1;" parent="1" vertex="1">
                    <mxGeometry x="760" y="180" width="120" height="60" as="geometry"/>
                </mxCell>
                <mxCell id="aLujG4GxXykHUJVtc95M-21" style="edgeStyle=none;html=1;entryX=1;entryY=0.5;entryDx=0;entryDy=0;exitX=0;exitY=0.5;exitDx=0;exitDy=0;" parent="1" source="aLujG4GxXykHUJVtc95M-16" target="aLujG4GxXykHUJVtc95M-8" edge="1">
                    <mxGeometry relative="1" as="geometry"/>
                </mxCell>
                <mxCell id="aLujG4GxXykHUJVtc95M-16" value="read_data" style="rounded=0;whiteSpace=wrap;html=1;" parent="1" vertex="1">
                    <mxGeometry x="760" y="290" width="120" height="60" as="geometry"/>
                </mxCell>
                <mxCell id="aLujG4GxXykHUJVtc95M-29" style="edgeStyle=none;html=1;entryX=0;entryY=0.5;entryDx=0;entryDy=0;" parent="1" source="aLujG4GxXykHUJVtc95M-23" target="aLujG4GxXykHUJVtc95M-2" edge="1">
                    <mxGeometry relative="1" as="geometry"/>
                </mxCell>
                <mxCell id="aLujG4GxXykHUJVtc95M-23" value="HandleData" style="rounded=0;whiteSpace=wrap;html=1;" parent="1" vertex="1">
                    <mxGeometry x="160" y="180" width="120" height="60" as="geometry"/>
                </mxCell>
                <mxCell id="aLujG4GxXykHUJVtc95M-28" style="edgeStyle=none;html=1;entryX=0;entryY=0.5;entryDx=0;entryDy=0;" parent="1" source="aLujG4GxXykHUJVtc95M-24" target="aLujG4GxXykHUJVtc95M-23" edge="1">
                    <mxGeometry relative="1" as="geometry"/>
                </mxCell>
                <mxCell id="aLujG4GxXykHUJVtc95M-24" value="sort_data" style="rounded=0;whiteSpace=wrap;html=1;" parent="1" vertex="1">
                    <mxGeometry x="-40" y="180" width="120" height="60" as="geometry"/>
                </mxCell>
                <mxCell id="aLujG4GxXykHUJVtc95M-27" style="edgeStyle=none;html=1;entryX=0;entryY=0.5;entryDx=0;entryDy=0;exitX=1;exitY=0.5;exitDx=0;exitDy=0;" parent="1" source="aLujG4GxXykHUJVtc95M-25" target="aLujG4GxXykHUJVtc95M-23" edge="1">
                    <mxGeometry relative="1" as="geometry"/>
                </mxCell>
                <mxCell id="aLujG4GxXykHUJVtc95M-25" value="date_time" style="rounded=0;whiteSpace=wrap;html=1;" parent="1" vertex="1">
                    <mxGeometry x="-40" y="70" width="120" height="60" as="geometry"/>
                </mxCell>
                <mxCell id="aLujG4GxXykHUJVtc95M-30" value="stop" style="ellipse;whiteSpace=wrap;html=1;" parent="1" vertex="1">
                    <mxGeometry x="365" y="400" width="120" height="80" as="geometry"/>
                </mxCell>
                <mxCell id="kWPS0rudbNq3SWSWkD97-3" style="edgeStyle=none;html=1;entryX=0;entryY=0.5;entryDx=0;entryDy=0;exitX=1;exitY=0.5;exitDx=0;exitDy=0;" parent="1" source="kWPS0rudbNq3SWSWkD97-1" target="aLujG4GxXykHUJVtc95M-23" edge="1">
                    <mxGeometry relative="1" as="geometry"/>
                </mxCell>
                <mxCell id="kWPS0rudbNq3SWSWkD97-1" value="filter_data" style="rounded=0;whiteSpace=wrap;html=1;" parent="1" vertex="1">
                    <mxGeometry x="-40" y="290" width="120" height="60" as="geometry"/>
                </mxCell>
                <mxCell id="kWPS0rudbNq3SWSWkD97-8" style="edgeStyle=none;html=1;entryX=0;entryY=0.5;entryDx=0;entryDy=0;exitX=1;exitY=0.5;exitDx=0;exitDy=0;" parent="1" source="kWPS0rudbNq3SWSWkD97-4" target="aLujG4GxXykHUJVtc95M-23" edge="1">
                    <mxGeometry relative="1" as="geometry"/>
                </mxCell>
                <mxCell id="kWPS0rudbNq3SWSWkD97-4" value="group_data" style="rounded=0;whiteSpace=wrap;html=1;" parent="1" vertex="1">
                    <mxGeometry x="-40" y="400" width="120" height="60" as="geometry"/>
                </mxCell>
                <mxCell id="kWPS0rudbNq3SWSWkD97-9" style="edgeStyle=none;html=1;entryX=0;entryY=0.5;entryDx=0;entryDy=0;exitX=1;exitY=0.5;exitDx=0;exitDy=0;" parent="1" source="kWPS0rudbNq3SWSWkD97-6" target="aLujG4GxXykHUJVtc95M-23" edge="1">
                    <mxGeometry relative="1" as="geometry"/>
                </mxCell>
                <mxCell id="kWPS0rudbNq3SWSWkD97-6" value="create_graph" style="rounded=0;whiteSpace=wrap;html=1;" parent="1" vertex="1">
                    <mxGeometry x="-40" y="520" width="120" height="60" as="geometry"/>
                </mxCell>
                <mxCell id="kWPS0rudbNq3SWSWkD97-12" value="" style="edgeStyle=none;html=1;" parent="1" source="kWPS0rudbNq3SWSWkD97-10" target="aLujG4GxXykHUJVtc95M-25" edge="1">
                    <mxGeometry relative="1" as="geometry"/>
                </mxCell>
                <mxCell id="kWPS0rudbNq3SWSWkD97-10" value="convert_seconds" style="rounded=0;whiteSpace=wrap;html=1;" parent="1" vertex="1">
                    <mxGeometry x="-40" y="-40" width="120" height="60" as="geometry"/>
                </mxCell>
                <mxCell id="kWPS0rudbNq3SWSWkD97-15" value="" style="edgeStyle=none;html=1;" parent="1" source="kWPS0rudbNq3SWSWkD97-13" target="aLujG4GxXykHUJVtc95M-2" edge="1">
                    <mxGeometry relative="1" as="geometry"/>
                </mxCell>
                <mxCell id="kWPS0rudbNq3SWSWkD97-13" value="enter command" style="shape=parallelogram;perimeter=parallelogramPerimeter;whiteSpace=wrap;html=1;fixedSize=1;" parent="1" vertex="1">
                    <mxGeometry x="365" y="72" width="120" height="60" as="geometry"/>
                </mxCell>
                <mxCell id="kWPS0rudbNq3SWSWkD97-21" value="" style="edgeStyle=none;html=1;" parent="1" source="kWPS0rudbNq3SWSWkD97-19" target="aLujG4GxXykHUJVtc95M-30" edge="1">
                    <mxGeometry relative="1" as="geometry"/>
                </mxCell>
                <mxCell id="kWPS0rudbNq3SWSWkD97-19" value="Output data" style="shape=parallelogram;perimeter=parallelogramPerimeter;whiteSpace=wrap;html=1;fixedSize=1;" parent="1" vertex="1">
                    <mxGeometry x="365" y="290" width="120" height="60" as="geometry"/>
                </mxCell>
            </root>
        </mxGraphModel>
    </diagram>
</mxfile>